<?xml version="1.0" encoding="UTF-8" standalone="no"?>
<!-- Created with Inkscape (http://www.inkscape.org/) -->

<svg
   width="50mm"
   height="50mm"
   viewBox="0 0 50 50"
   version="1.1"
   id="svg5"
   xmlns="http://www.w3.org/2000/svg"
   xmlns:svg="http://www.w3.org/2000/svg">
  <defs
     id="defs2" />
  <g
     id="layer1"
     style="display:none">
    <path
       style="fill:none;stroke:#000000;stroke-width:0.264583"
       id="path565"
       d="M 31.827505,35.062892 A 12.084099,12.084099 0 0 1 15.091123,31.69295 12.084099,12.084099 0 0 1 18.427368,14.949818 12.084099,12.084099 0 0 1 35.177182,18.252354 12.084099,12.084099 0 0 1 31.90837,35.008782" />
    <path
       style="fill:none;stroke:#000000;stroke-width:0.264583"
       id="path565-5"
       d="M 31.803223,22.771494 A 12.084099,12.084099 0 0 1 15.066841,19.401552 12.084099,12.084099 0 0 1 18.403086,2.6584204 12.084099,12.084099 0 0 1 35.1529,5.960956 12.084099,12.084099 0 0 1 31.884087,22.717384" />
    <path
       style="display:inline;fill:none;stroke:#000000;stroke-width:0.264583"
       id="path565-3"
       d="M 31.588713,47.357976 A 12.084099,12.084099 0 0 1 14.852331,43.988034 12.084099,12.084099 0 0 1 18.188576,27.244902 12.084099,12.084099 0 0 1 34.93839,30.547438 12.084099,12.084099 0 0 1 31.669577,47.303866" />
  </g>
  <g
     id="layer2"
     style="display:inline">
    <path
       id="path565-56"
       style="display:inline;vector-effect:non-scaling-stroke;fill:none;stroke:#000000;stroke-width:0.264583;stroke-dasharray:none;-inkscape-stroke:hairline"
       d="M 24.987622,0.54777018 C 22.562448,0.5286538 20.187627,1.2397136 18.172017,2.5884725 14.90007,4.7806317 13.029607,8.308061 12.830225,11.981698 c 0.406957,8.35012 -1.352159,13.973304 1.828829,19.313033 -1.153014,4.92038 0.281562,9.376669 2.692127,12.974374 3.695083,5.546174 8.25133,5.301083 12.947745,3.018965 l 0.08113,-0.05426 c 3.432634,-2.31701 5.296783,-6.089078 5.324223,-9.940478 0.01452,-2.038566 0.312686,-4.099534 -0.532268,-5.978447 1.183004,-1.900589 1.812994,-4.092407 1.828829,-6.315376 C 37.25135,14.828493 38.350665,11.240374 34.921383,5.8905965 32.695397,2.5787274 28.977922,0.57930138 24.987622,0.54777018 Z" />
    <path
       style="vector-effect:non-scaling-stroke;fill:none;stroke:#000000;stroke-width:0.264583;stroke-dasharray:none;-inkscape-stroke:hairline"
       id="path796"
       d="m 21.585146,28.427104 a 4.2069125,4.207396 0 0 1 -5.826541,-1.173333 4.2069125,4.207396 0 0 1 1.161468,-5.829561 4.2069125,4.207396 0 0 1 5.831217,1.149864 4.2069125,4.207396 0 0 1 -1.137992,5.83419" />
    <path
       style="display:inline;vector-effect:non-scaling-stroke;fill:none;stroke:#000000;stroke-width:0.264583;stroke-dasharray:none;-inkscape-stroke:hairline"
       id="path796-0"
       d="M 25.804176,7.7612815 A 1.7582153,1.7582153 0 0 1 23.369062,7.2709609 1.7582153,1.7582153 0 0 1 23.85448,4.8348644 1.7582153,1.7582153 0 0 1 26.291549,5.3153775 1.7582153,1.7582153 0 0 1 25.815942,7.7534086" />
    <path
       style="display:inline;vector-effect:non-scaling-stroke;fill:none;stroke:#000000;stroke-width:0.264583;stroke-dasharray:none;-inkscape-stroke:hairline"
       id="path796-7"
       d="m 33.159709,28.808469 a 4.1479144,4.4732533 0 0 1 -5.744829,-1.247474 4.1479144,4.4732533 0 0 1 1.145179,-6.197919 4.1479144,4.4732533 0 0 1 5.74944,1.222522 4.1479144,4.4732533 0 0 1 -1.122033,6.202841" />
    <path
       style="vector-effect:non-scaling-stroke;fill:none;stroke:#000000;stroke-width:0.264583;stroke-dasharray:none;-inkscape-stroke:hairline"
       d="m 24.985898,26.333337 -1.590276,9.359366 3.319828,0.02041 z"
       id="path877" />
    <rect
       style="fill:none;stroke:#000000;stroke-width:0.227619"
       id="rect879"
       width="13.353476"
       height="2.8531137"
       x="18.380945"
       y="39.063763" />
    <text
       xml:space="preserve"
       style="font-size:3.175px;fill:none;stroke:#000000;stroke-width:0.264583"
       x="18.7374"
       y="41.534485"
       id="text1024"><tspan
         id="tspan1022"
         style="font-style:normal;font-variant:normal;font-weight:normal;font-stretch:normal;font-size:2.82222px;font-family:sans-serif;-inkscape-font-specification:'sans-serif, Normal';font-variant-ligatures:normal;font-variant-caps:normal;font-variant-numeric:normal;font-variant-east-asian:normal;stroke-width:0.264583"
         x="18.7374"
         y="41.534485">VERICITE</tspan></text>
  </g>
</svg>
